<svg xmlns="http://www.w3.org/2000/svg" viewBox="0 0 519.92 413.48"><defs><style>.cls-1{fill:none;}.cls-2{fill:#ccc;}</style></defs><g id="Layer_2" data-name="Layer 2"><g id="Layer_1-2" data-name="Layer 1"><rect class="cls-1" width="519.92" height="413.48"/><path class="cls-2" d="M412.48,51.87h-305a63.11,63.11,0,0,0-63,63V298.57a63.11,63.11,0,0,0,63,63h305a63.11,63.11,0,0,0,63-63V114.91A63.11,63.11,0,0,0,412.48,51.87Zm42,246.7a42,42,0,0,1-42,41.95h-305a42,42,0,0,1-41.95-41.95V114.91a42,42,0,0,1,42-41.95h305a42,42,0,0,1,42,42Z"/><path class="cls-2" d="M355.72,160.48a10.54,10.54,0,1,0-14.91,14.91l34.3,34.3L340.81,244a10.54,10.54,0,1,0,14.91,14.91l41.76-41.76a10.54,10.54,0,0,0,0-14.91Z"/><path class="cls-2" d="M180.36,160.48a10.54,10.54,0,0,0-14.91,0L123.7,202.24a10.54,10.54,0,0,0,0,14.91l41.75,41.76A10.54,10.54,0,0,0,180.36,244l-34.3-34.31,34.3-34.3A10.54,10.54,0,0,0,180.36,160.48Z"/><path class="cls-2" d="M282.87,158.3A10.55,10.55,0,0,0,269,163.64l-37.24,83.52A10.54,10.54,0,1,0,251,255.75l37.24-83.52A10.55,10.55,0,0,0,282.87,158.3Z"/></g></g></svg>