<svg xmlns="http://www.w3.org/2000/svg" viewBox="0 0 519.92 413.48"><defs><style>.cls-1{fill:none;}.cls-2{fill:#ccc;}</style></defs><g id="Layer_2" data-name="Layer 2"><g id="Layer_1-2" data-name="Layer 1"><rect class="cls-1" width="519.92" height="413.48"/><path class="cls-2" d="M291.05,393.1H228.87A20.88,20.88,0,0,1,208,372.25V357.32a160.14,160.14,0,0,1-17.8-7.36L179.67,360.5a20.88,20.88,0,0,1-29.5,0l-44-44a20.86,20.86,0,0,1,0-29.5l10.57-10.58a159.55,159.55,0,0,1-7.34-17.77h-15A20.88,20.88,0,0,1,73.6,237.83V175.65a20.88,20.88,0,0,1,20.86-20.86h15a160.54,160.54,0,0,1,7.34-17.71L106.2,126.45a20.89,20.89,0,0,1,0-29.5l44-44c7.87-7.88,21.62-7.89,29.5,0l10.66,10.66A156.12,156.12,0,0,1,208,56.33V41.24a20.88,20.88,0,0,1,20.86-20.86h62.18a20.88,20.88,0,0,1,20.86,20.86V56.33a157,157,0,0,1,17.69,7.31L340.26,53a20.87,20.87,0,0,1,29.5,0l44,44a20.88,20.88,0,0,1,0,29.51l-10.63,10.63a156.75,156.75,0,0,1,7.34,17.71h15a20.89,20.89,0,0,1,20.86,20.86v62.18a20.89,20.89,0,0,1-20.86,20.86h-15a157.67,157.67,0,0,1-7.34,17.77L413.72,287a20.88,20.88,0,0,1,0,29.51l-44,44a20.88,20.88,0,0,1-29.5,0L329.71,350a158.25,158.25,0,0,1-17.8,7.36v14.93A20.88,20.88,0,0,1,291.05,393.1ZM186.37,324l6.94,3.84a138.18,138.18,0,0,0,28.18,11.66l7.61,2.2v30.57l62-.23-.23-30.34,7.61-2.2a137.39,137.39,0,0,0,28.18-11.66l6.95-3.84,21.61,21.61,43.64-44-21.63-21.31,3.83-6.94a137.35,137.35,0,0,0,11.63-28.16l2.2-7.62h30.63l-.23-61.72H394.8l-2.21-7.61A137.26,137.26,0,0,0,381,140.18l-3.83-7,21.69-21.7-44-43.64L333.45,89.6l-6.94-3.82a137.74,137.74,0,0,0-28.08-11.61L290.82,72V41.24l-61.95.22L229.1,72l-7.61,2.2a138,138,0,0,0-28.08,11.61l-6.94,3.82L164.76,67.89l-43.65,44,21.7,21.38-3.84,7a137.92,137.92,0,0,0-11.64,28.09l-2.2,7.61H94.46l.23,62,30.4-.23,2.2,7.62a137.88,137.88,0,0,0,11.62,28.16l3.83,6.94L121.11,302l44,43.64ZM260,291.47a84.65,84.65,0,1,1,84.64-84.64A84.74,84.74,0,0,1,260,291.47Zm0-148.2a63.56,63.56,0,1,0,63.56,63.56A63.63,63.63,0,0,0,260,143.27Z"/></g></g></svg>