<svg xmlns="http://www.w3.org/2000/svg" viewBox="0 0 519.92 413.48"><defs><style>.cls-1{fill:none;}.cls-2{fill:#ccc;}</style></defs><g id="Layer_2" data-name="Layer 2"><g id="Layer_1-2" data-name="Layer 1"><rect class="cls-1" width="519.92" height="413.48"/><path class="cls-2" d="M412.48,28.86h-305a63.11,63.11,0,0,0-63,63V275.55a63.11,63.11,0,0,0,63,63H249.53v25.18H194.19A9.18,9.18,0,0,0,185,373v2.5a9.18,9.18,0,0,0,9.17,9.17H325.73a9.18,9.18,0,0,0,9.17-9.17V373a9.18,9.18,0,0,0-9.17-9.18H270.39V338.59H412.48a63.11,63.11,0,0,0,63-63V91.9A63.11,63.11,0,0,0,412.48,28.86ZM107.44,50h305a42,42,0,0,1,42,42v162H65.49V91.9A42,42,0,0,1,107.44,50Zm305,267.55h-305a42,42,0,0,1-41.95-41.95V275h389v.52A42,42,0,0,1,412.48,317.5Z"/></g></g></svg>