<svg xmlns="http://www.w3.org/2000/svg" viewBox="0 0 519.92 413.48"><defs><style>.cls-1{fill:none;}.cls-2{fill:#ccc;}</style></defs><g id="Layer_2" data-name="Layer 2"><g id="Layer_1-2" data-name="Layer 1"><rect class="cls-1" width="519.92" height="413.48"/><path class="cls-2" d="M456.88,51.07H437.23V38a38.06,38.06,0,0,0-38-38H318.75a38.06,38.06,0,0,0-38,38v13h-110a63.1,63.1,0,0,0-63,61.24L95.09,99.52a26.53,26.53,0,0,0-18.85-7.94A25.82,25.82,0,0,0,57.3,99.3L32.26,124A26.75,26.75,0,0,0,32,161.83l75.65,76.56v36.47a63.11,63.11,0,0,0,63,63H206l46.31,46.85c1.14,1.16,1.9,1.93,12.45,5.92H10.54a10.54,10.54,0,0,0,0,21.08H329.87a10.52,10.52,0,0,0,9.61-14.87,13,13,0,0,0-.54-2.44c-8.79-29.57-13.94-46.57-17.14-56.54H456.88a63.11,63.11,0,0,0,63-63V114.11A63.11,63.11,0,0,0,456.88,51.07ZM301.82,51V38a17,17,0,0,1,16.93-16.93h80.46A16.94,16.94,0,0,1,416.14,38v13H315.94ZM45.41,143a5.57,5.57,0,0,1,1.67-4l25-24.75a6.7,6.7,0,0,1,4-1.62,5.6,5.6,0,0,1,4,1.67L94.7,129.12,61.63,161.79,47,147A5.58,5.58,0,0,1,45.41,143ZM170.72,316.81a42,42,0,0,1-41.95-41.95V259.73l56.4,57.08Zm-94.26-140,33.06-32.67L298.91,335.77c2.13,6.12,8.75,27.71,15.5,50.23-21.84-7.67-42.71-15.13-48.44-17.43Zm422.37,98.07a42,42,0,0,1-41.95,41.95H309.81l-181-183.21V114.11a42,42,0,0,1,41.95-41.95h145.4c18.54.07,41.26.12,61.47.12,16.54,0,31.38,0,40.87-.12h38.42a42,42,0,0,1,41.95,42Z"/><path class="cls-2" d="M358,94.84a102.1,102.1,0,1,0,102.09,102.1A102.21,102.21,0,0,0,358,94.84Zm0,183.1a81,81,0,1,1,81-81A81.1,81.1,0,0,1,358,277.94Z"/></g></g></svg>