<svg xmlns="http://www.w3.org/2000/svg" viewBox="0 0 519.92 413.48"><defs><style>.cls-1{fill:none;}.cls-2{fill:#ccc;}</style></defs><g id="Layer_2" data-name="Layer 2"><g id="Layer_1-2" data-name="Layer 1"><rect class="cls-1" width="519.92" height="413.48"/><path class="cls-2" d="M211.67,404a41.44,41.44,0,1,1,41.44-41.43A41.48,41.48,0,0,1,211.67,404Zm0-61.78A20.35,20.35,0,1,0,232,362.57,20.37,20.37,0,0,0,211.67,342.22Z"/><path class="cls-2" d="M410.37,404a41.44,41.44,0,1,1,41.44-41.43A41.48,41.48,0,0,1,410.37,404Zm0-61.78a20.35,20.35,0,1,0,20.35,20.35A20.37,20.37,0,0,0,410.37,342.22Z"/><path class="cls-2" d="M172.71,310.39A59.38,59.38,0,0,1,115,264.45L69.61,66.78A16.19,16.19,0,0,1,85.39,47H473.17a16.22,16.22,0,0,1,16.2,16.2V207.39a58.93,58.93,0,0,1-49.78,58.43L182.1,309.64A58.73,58.73,0,0,1,172.71,310.39ZM91.53,68.05l44,191.68a38.23,38.23,0,0,0,43.16,29.11L436.2,245a37.94,37.94,0,0,0,32.08-37.62V68.05Z"/><path class="cls-2" d="M91.94,127.58a10.55,10.55,0,0,1-10.23-8l-21.85-89H10.54a10.55,10.55,0,0,1,0-21.09H76.39l25.8,105a10.56,10.56,0,0,1-10.25,13.06Z"/></g></g></svg>